<svg xmlns="http://www.w3.org/2000/svg" width="512" height="384" viewBox="0 0 512 384" role="img" aria-label="骷髅士兵动作精灵表"><title>骷髅士兵动作精灵表</title><defs><filter id="softShadow" x="-30%" y="-30%" width="160%" height="160%"><feDropShadow dx="0" dy="4" stdDeviation="3" flood-color="#000000" flood-opacity="0.32"/></filter><filter id="steelGlow" x="-40%" y="-40%" width="180%" height="180%"><feDropShadow dx="0" dy="0" stdDeviation="2" flood-color="#67f4de" flood-opacity="0.58"/></filter><linearGradient id="bladeSteel" x1="0" y1="0" x2="1" y2="1"><stop offset="0" stop-color="#ffffff"/><stop offset=".42" stop-color="#dff8ff"/><stop offset="1" stop-color="#6e8591"/></linearGradient><linearGradient id="blackSteel" x1="0" y1="0" x2="0" y2="1"><stop offset="0" stop-color="#5b6873"/><stop offset=".48" stop-color="#2c3640"/><stop offset="1" stop-color="#12171f"/></linearGradient></defs><g transform="translate(0 0) scale(1.3333333333333333)">
    <ellipse cx="48" cy="81" rx="24" ry="6" fill="#000" opacity=".31"/>
    <g filter="url(#softShadow)" transform="translate(0 0)">
      <path d="M34 21 C39 11 57 11 62 21 L59 37 L37 37Z" fill="#cfc5a6"/>
      <path d="M38 20 L33 14 M58 20 L63 14" stroke="#8f8265" stroke-width="2.2" stroke-linecap="round"/>
      <path d="M39 37 H57 L55 44 H41Z" fill="#cfc5a6"/>
      <path d="M35 43 H61 L66 63 H30Z" fill="#2a323d"/>
      <path d="M37 45 H59 L57 51 H39Z" fill="#607080" opacity=".72"/>
      <path d="M38 52 H58 M39 59 H57" stroke="#cfc5a6" stroke-width="2.4" stroke-linecap="round" opacity=".86"/>
      <circle cx="43" cy="27" r="3.6" fill="#101820"/>
      <circle cx="53" cy="27" r="3.6" fill="#101820"/>
      <circle cx="43" cy="27" r="1.9" fill="#67e0d4"/>
      <circle cx="53" cy="27" r="1.9" fill="#67e0d4"/>
      <path d="M42 34 H55 M44 38 H52" stroke="#8f8265" stroke-width="1.8" stroke-linecap="round"/>
      <path d="M35 45 C28 52 28 60 33 66" fill="none" stroke="#cfc5a6" stroke-width="5" stroke-linecap="round"/>
      <path d="M61 45 C67 48 52 46 57 52" fill="none" stroke="#cfc5a6" stroke-width="5" stroke-linecap="round"/>
      <path d="M60 38 L76 17" stroke="url(#bladeSteel)" stroke-width="4.4" stroke-linecap="round" filter="url(#steelGlow)"/>
      <path d="M63 35 L73 21" stroke="#fff" stroke-width="1.1" opacity=".75"/>
      <path d="M38 64 L34 80" stroke="#cfc5a6" stroke-width="6" stroke-linecap="round" transform="translate(0 0)"/>
      <path d="M57 64 L63 80" stroke="#cfc5a6" stroke-width="6" stroke-linecap="round" transform="translate(0 0)"/>
      <path d="M31 48 L25 54 L33 56 M65 48 L72 54 L63 56" fill="#607080" opacity=".8"/>
      
    </g></g><g transform="translate(128 0) scale(1.3333333333333333)">
    <ellipse cx="48" cy="81" rx="24" ry="6" fill="#000" opacity=".31"/>
    <g filter="url(#softShadow)" transform="translate(1 -1)">
      <path d="M34 21 C39 11 57 11 62 21 L59 37 L37 37Z" fill="#cfc5a6"/>
      <path d="M38 20 L33 14 M58 20 L63 14" stroke="#8f8265" stroke-width="2.2" stroke-linecap="round"/>
      <path d="M39 37 H57 L55 44 H41Z" fill="#cfc5a6"/>
      <path d="M35 43 H61 L66 63 H30Z" fill="#2a323d"/>
      <path d="M37 45 H59 L57 51 H39Z" fill="#607080" opacity=".72"/>
      <path d="M38 52 H58 M39 59 H57" stroke="#cfc5a6" stroke-width="2.4" stroke-linecap="round" opacity=".86"/>
      <circle cx="43" cy="27" r="3.6" fill="#101820"/>
      <circle cx="53" cy="27" r="3.6" fill="#101820"/>
      <circle cx="43" cy="27" r="1.9" fill="#67e0d4"/>
      <circle cx="53" cy="27" r="1.9" fill="#67e0d4"/>
      <path d="M42 34 H55 M44 38 H52" stroke="#8f8265" stroke-width="1.8" stroke-linecap="round"/>
      <path d="M35 45 C28 52 28 60 33 66" fill="none" stroke="#cfc5a6" stroke-width="5" stroke-linecap="round"/>
      <path d="M61 45 C67 50 52 46 57 52" fill="none" stroke="#cfc5a6" stroke-width="5" stroke-linecap="round"/>
      <path d="M60 38 L76 17" stroke="url(#bladeSteel)" stroke-width="4.4" stroke-linecap="round" filter="url(#steelGlow)"/>
      <path d="M63 35 L73 21" stroke="#fff" stroke-width="1.1" opacity=".75"/>
      <path d="M38 64 L34 80" stroke="#cfc5a6" stroke-width="6" stroke-linecap="round" transform="translate(0 0)"/>
      <path d="M57 64 L63 80" stroke="#cfc5a6" stroke-width="6" stroke-linecap="round" transform="translate(0 0)"/>
      <path d="M31 48 L25 54 L33 56 M65 48 L72 54 L63 56" fill="#607080" opacity=".8"/>
      
    </g></g><g transform="translate(256 0) scale(1.3333333333333333)">
    <ellipse cx="48" cy="81" rx="24" ry="6" fill="#000" opacity=".31"/>
    <g filter="url(#softShadow)" transform="translate(0 0)">
      <path d="M34 21 C39 11 57 11 62 21 L59 37 L37 37Z" fill="#cfc5a6"/>
      <path d="M38 20 L33 14 M58 20 L63 14" stroke="#8f8265" stroke-width="2.2" stroke-linecap="round"/>
      <path d="M39 37 H57 L55 44 H41Z" fill="#cfc5a6"/>
      <path d="M35 43 H61 L66 63 H30Z" fill="#2a323d"/>
      <path d="M37 45 H59 L57 51 H39Z" fill="#607080" opacity=".72"/>
      <path d="M38 52 H58 M39 59 H57" stroke="#cfc5a6" stroke-width="2.4" stroke-linecap="round" opacity=".86"/>
      <circle cx="43" cy="27" r="3.6" fill="#101820"/>
      <circle cx="53" cy="27" r="3.6" fill="#101820"/>
      <circle cx="43" cy="27" r="1.9" fill="#67e0d4"/>
      <circle cx="53" cy="27" r="1.9" fill="#67e0d4"/>
      <path d="M42 34 H55 M44 38 H52" stroke="#8f8265" stroke-width="1.8" stroke-linecap="round"/>
      <path d="M35 45 C28 52 28 60 33 66" fill="none" stroke="#cfc5a6" stroke-width="5" stroke-linecap="round"/>
      <path d="M61 45 C67 48 52 46 57 52" fill="none" stroke="#cfc5a6" stroke-width="5" stroke-linecap="round"/>
      <path d="M60 38 L76 17" stroke="url(#bladeSteel)" stroke-width="4.4" stroke-linecap="round" filter="url(#steelGlow)"/>
      <path d="M63 35 L73 21" stroke="#fff" stroke-width="1.1" opacity=".75"/>
      <path d="M38 64 L34 80" stroke="#cfc5a6" stroke-width="6" stroke-linecap="round" transform="translate(0 0)"/>
      <path d="M57 64 L63 80" stroke="#cfc5a6" stroke-width="6" stroke-linecap="round" transform="translate(0 0)"/>
      <path d="M31 48 L25 54 L33 56 M65 48 L72 54 L63 56" fill="#607080" opacity=".8"/>
      
    </g></g><g transform="translate(384 0) scale(1.3333333333333333)">
    <ellipse cx="48" cy="81" rx="24" ry="6" fill="#000" opacity=".31"/>
    <g filter="url(#softShadow)" transform="translate(-1 1)">
      <path d="M34 21 C39 11 57 11 62 21 L59 37 L37 37Z" fill="#cfc5a6"/>
      <path d="M38 20 L33 14 M58 20 L63 14" stroke="#8f8265" stroke-width="2.2" stroke-linecap="round"/>
      <path d="M39 37 H57 L55 44 H41Z" fill="#cfc5a6"/>
      <path d="M35 43 H61 L66 63 H30Z" fill="#2a323d"/>
      <path d="M37 45 H59 L57 51 H39Z" fill="#607080" opacity=".72"/>
      <path d="M38 52 H58 M39 59 H57" stroke="#cfc5a6" stroke-width="2.4" stroke-linecap="round" opacity=".86"/>
      <circle cx="43" cy="27" r="3.6" fill="#101820"/>
      <circle cx="53" cy="27" r="3.6" fill="#101820"/>
      <circle cx="43" cy="27" r="1.9" fill="#67e0d4"/>
      <circle cx="53" cy="27" r="1.9" fill="#67e0d4"/>
      <path d="M42 34 H55 M44 38 H52" stroke="#8f8265" stroke-width="1.8" stroke-linecap="round"/>
      <path d="M35 45 C28 52 28 60 33 66" fill="none" stroke="#cfc5a6" stroke-width="5" stroke-linecap="round"/>
      <path d="M61 45 C67 46 52 46 57 52" fill="none" stroke="#cfc5a6" stroke-width="5" stroke-linecap="round"/>
      <path d="M60 38 L76 17" stroke="url(#bladeSteel)" stroke-width="4.4" stroke-linecap="round" filter="url(#steelGlow)"/>
      <path d="M63 35 L73 21" stroke="#fff" stroke-width="1.1" opacity=".75"/>
      <path d="M38 64 L34 80" stroke="#cfc5a6" stroke-width="6" stroke-linecap="round" transform="translate(0 0)"/>
      <path d="M57 64 L63 80" stroke="#cfc5a6" stroke-width="6" stroke-linecap="round" transform="translate(0 0)"/>
      <path d="M31 48 L25 54 L33 56 M65 48 L72 54 L63 56" fill="#607080" opacity=".8"/>
      
    </g></g><g transform="translate(0 128) scale(1.3333333333333333)">
    <ellipse cx="48" cy="81" rx="24" ry="6" fill="#000" opacity=".31"/>
    <g filter="url(#softShadow)" transform="translate(0 0)">
      <path d="M34 21 C39 11 57 11 62 21 L59 37 L37 37Z" fill="#cfc5a6"/>
      <path d="M38 20 L33 14 M58 20 L63 14" stroke="#8f8265" stroke-width="2.2" stroke-linecap="round"/>
      <path d="M39 37 H57 L55 44 H41Z" fill="#cfc5a6"/>
      <path d="M35 43 H61 L66 63 H30Z" fill="#2a323d"/>
      <path d="M37 45 H59 L57 51 H39Z" fill="#607080" opacity=".72"/>
      <path d="M38 52 H58 M39 59 H57" stroke="#cfc5a6" stroke-width="2.4" stroke-linecap="round" opacity=".86"/>
      <circle cx="43" cy="27" r="3.6" fill="#101820"/>
      <circle cx="53" cy="27" r="3.6" fill="#101820"/>
      <circle cx="43" cy="27" r="1.9" fill="#67e0d4"/>
      <circle cx="53" cy="27" r="1.9" fill="#67e0d4"/>
      <path d="M42 34 H55 M44 38 H52" stroke="#8f8265" stroke-width="1.8" stroke-linecap="round"/>
      <path d="M35 45 C28 52 28 60 33 66" fill="none" stroke="#cfc5a6" stroke-width="5" stroke-linecap="round"/>
      <path d="M61 45 C67 48 52 46 57 52" fill="none" stroke="#cfc5a6" stroke-width="5" stroke-linecap="round"/>
      <path d="M60 38 L76 17" stroke="url(#bladeSteel)" stroke-width="4.4" stroke-linecap="round" filter="url(#steelGlow)"/>
      <path d="M63 35 L73 21" stroke="#fff" stroke-width="1.1" opacity=".75"/>
      <path d="M38 64 L34 80" stroke="#cfc5a6" stroke-width="6" stroke-linecap="round" transform="translate(0 0)"/>
      <path d="M57 64 L63 80" stroke="#cfc5a6" stroke-width="6" stroke-linecap="round" transform="translate(0 0)"/>
      <path d="M31 48 L25 54 L33 56 M65 48 L72 54 L63 56" fill="#607080" opacity=".8"/>
      
    </g></g><g transform="translate(128 128) scale(1.3333333333333333)">
    <ellipse cx="48" cy="81" rx="24" ry="6" fill="#000" opacity=".31"/>
    <g filter="url(#softShadow)" transform="translate(1 -2)">
      <path d="M34 21 C39 11 57 11 62 21 L59 37 L37 37Z" fill="#cfc5a6"/>
      <path d="M38 20 L33 14 M58 20 L63 14" stroke="#8f8265" stroke-width="2.2" stroke-linecap="round"/>
      <path d="M39 37 H57 L55 44 H41Z" fill="#cfc5a6"/>
      <path d="M35 43 H61 L66 63 H30Z" fill="#2a323d"/>
      <path d="M37 45 H59 L57 51 H39Z" fill="#607080" opacity=".72"/>
      <path d="M38 52 H58 M39 59 H57" stroke="#cfc5a6" stroke-width="2.4" stroke-linecap="round" opacity=".86"/>
      <circle cx="43" cy="27" r="3.6" fill="#101820"/>
      <circle cx="53" cy="27" r="3.6" fill="#101820"/>
      <circle cx="43" cy="27" r="1.9" fill="#67e0d4"/>
      <circle cx="53" cy="27" r="1.9" fill="#67e0d4"/>
      <path d="M42 34 H55 M44 38 H52" stroke="#8f8265" stroke-width="1.8" stroke-linecap="round"/>
      <path d="M35 45 C28 52 28 60 33 66" fill="none" stroke="#cfc5a6" stroke-width="5" stroke-linecap="round"/>
      <path d="M61 45 C67 50 52 46 57 52" fill="none" stroke="#cfc5a6" stroke-width="5" stroke-linecap="round"/>
      <path d="M60 38 L76 17" stroke="url(#bladeSteel)" stroke-width="4.4" stroke-linecap="round" filter="url(#steelGlow)"/>
      <path d="M63 35 L73 21" stroke="#fff" stroke-width="1.1" opacity=".75"/>
      <path d="M38 64 L34 80" stroke="#cfc5a6" stroke-width="6" stroke-linecap="round" transform="translate(4 0)"/>
      <path d="M57 64 L63 80" stroke="#cfc5a6" stroke-width="6" stroke-linecap="round" transform="translate(-4 0)"/>
      <path d="M31 48 L25 54 L33 56 M65 48 L72 54 L63 56" fill="#607080" opacity=".8"/>
      
    </g></g><g transform="translate(256 128) scale(1.3333333333333333)">
    <ellipse cx="48" cy="81" rx="24" ry="6" fill="#000" opacity=".31"/>
    <g filter="url(#softShadow)" transform="translate(0 0)">
      <path d="M34 21 C39 11 57 11 62 21 L59 37 L37 37Z" fill="#cfc5a6"/>
      <path d="M38 20 L33 14 M58 20 L63 14" stroke="#8f8265" stroke-width="2.2" stroke-linecap="round"/>
      <path d="M39 37 H57 L55 44 H41Z" fill="#cfc5a6"/>
      <path d="M35 43 H61 L66 63 H30Z" fill="#2a323d"/>
      <path d="M37 45 H59 L57 51 H39Z" fill="#607080" opacity=".72"/>
      <path d="M38 52 H58 M39 59 H57" stroke="#cfc5a6" stroke-width="2.4" stroke-linecap="round" opacity=".86"/>
      <circle cx="43" cy="27" r="3.6" fill="#101820"/>
      <circle cx="53" cy="27" r="3.6" fill="#101820"/>
      <circle cx="43" cy="27" r="1.9" fill="#67e0d4"/>
      <circle cx="53" cy="27" r="1.9" fill="#67e0d4"/>
      <path d="M42 34 H55 M44 38 H52" stroke="#8f8265" stroke-width="1.8" stroke-linecap="round"/>
      <path d="M35 45 C28 52 28 60 33 66" fill="none" stroke="#cfc5a6" stroke-width="5" stroke-linecap="round"/>
      <path d="M61 45 C67 48 52 46 57 52" fill="none" stroke="#cfc5a6" stroke-width="5" stroke-linecap="round"/>
      <path d="M60 38 L76 17" stroke="url(#bladeSteel)" stroke-width="4.4" stroke-linecap="round" filter="url(#steelGlow)"/>
      <path d="M63 35 L73 21" stroke="#fff" stroke-width="1.1" opacity=".75"/>
      <path d="M38 64 L34 80" stroke="#cfc5a6" stroke-width="6" stroke-linecap="round" transform="translate(0 0)"/>
      <path d="M57 64 L63 80" stroke="#cfc5a6" stroke-width="6" stroke-linecap="round" transform="translate(0 0)"/>
      <path d="M31 48 L25 54 L33 56 M65 48 L72 54 L63 56" fill="#607080" opacity=".8"/>
      
    </g></g><g transform="translate(384 128) scale(1.3333333333333333)">
    <ellipse cx="48" cy="81" rx="24" ry="6" fill="#000" opacity=".31"/>
    <g filter="url(#softShadow)" transform="translate(-1 2)">
      <path d="M34 21 C39 11 57 11 62 21 L59 37 L37 37Z" fill="#cfc5a6"/>
      <path d="M38 20 L33 14 M58 20 L63 14" stroke="#8f8265" stroke-width="2.2" stroke-linecap="round"/>
      <path d="M39 37 H57 L55 44 H41Z" fill="#cfc5a6"/>
      <path d="M35 43 H61 L66 63 H30Z" fill="#2a323d"/>
      <path d="M37 45 H59 L57 51 H39Z" fill="#607080" opacity=".72"/>
      <path d="M38 52 H58 M39 59 H57" stroke="#cfc5a6" stroke-width="2.4" stroke-linecap="round" opacity=".86"/>
      <circle cx="43" cy="27" r="3.6" fill="#101820"/>
      <circle cx="53" cy="27" r="3.6" fill="#101820"/>
      <circle cx="43" cy="27" r="1.9" fill="#67e0d4"/>
      <circle cx="53" cy="27" r="1.9" fill="#67e0d4"/>
      <path d="M42 34 H55 M44 38 H52" stroke="#8f8265" stroke-width="1.8" stroke-linecap="round"/>
      <path d="M35 45 C28 52 28 60 33 66" fill="none" stroke="#cfc5a6" stroke-width="5" stroke-linecap="round"/>
      <path d="M61 45 C67 46 52 46 57 52" fill="none" stroke="#cfc5a6" stroke-width="5" stroke-linecap="round"/>
      <path d="M60 38 L76 17" stroke="url(#bladeSteel)" stroke-width="4.4" stroke-linecap="round" filter="url(#steelGlow)"/>
      <path d="M63 35 L73 21" stroke="#fff" stroke-width="1.1" opacity=".75"/>
      <path d="M38 64 L34 80" stroke="#cfc5a6" stroke-width="6" stroke-linecap="round" transform="translate(-4 0)"/>
      <path d="M57 64 L63 80" stroke="#cfc5a6" stroke-width="6" stroke-linecap="round" transform="translate(4 0)"/>
      <path d="M31 48 L25 54 L33 56 M65 48 L72 54 L63 56" fill="#607080" opacity=".8"/>
      
    </g></g><g transform="translate(0 256) scale(1.3333333333333333)">
    <ellipse cx="48" cy="81" rx="24" ry="6" fill="#000" opacity=".31"/>
    <g filter="url(#softShadow)" transform="translate(0 0)">
      <path d="M34 21 C39 11 57 11 62 21 L59 37 L37 37Z" fill="#cfc5a6"/>
      <path d="M38 20 L33 14 M58 20 L63 14" stroke="#8f8265" stroke-width="2.2" stroke-linecap="round"/>
      <path d="M39 37 H57 L55 44 H41Z" fill="#cfc5a6"/>
      <path d="M35 43 H61 L66 63 H30Z" fill="#2a323d"/>
      <path d="M37 45 H59 L57 51 H39Z" fill="#607080" opacity=".72"/>
      <path d="M38 52 H58 M39 59 H57" stroke="#cfc5a6" stroke-width="2.4" stroke-linecap="round" opacity=".86"/>
      <circle cx="43" cy="27" r="3.6" fill="#101820"/>
      <circle cx="53" cy="27" r="3.6" fill="#101820"/>
      <circle cx="43" cy="27" r="1.9" fill="#67e0d4"/>
      <circle cx="53" cy="27" r="1.9" fill="#67e0d4"/>
      <path d="M42 34 H55 M44 38 H52" stroke="#8f8265" stroke-width="1.8" stroke-linecap="round"/>
      <path d="M35 45 C28 52 28 60 33 66" fill="none" stroke="#cfc5a6" stroke-width="5" stroke-linecap="round"/>
      <path d="M61 45 C67 36 51 47 56 53" fill="none" stroke="#cfc5a6" stroke-width="5" stroke-linecap="round"/>
      <path d="M59 39 L75 18" stroke="url(#bladeSteel)" stroke-width="4.4" stroke-linecap="round" filter="url(#steelGlow)"/>
      <path d="M62 36 L72 22" stroke="#fff" stroke-width="1.1" opacity=".75"/>
      <path d="M38 64 L34 80" stroke="#cfc5a6" stroke-width="6" stroke-linecap="round" transform="translate(0 0)"/>
      <path d="M57 64 L63 80" stroke="#cfc5a6" stroke-width="6" stroke-linecap="round" transform="translate(0 0)"/>
      <path d="M31 48 L25 54 L33 56 M65 48 L72 54 L63 56" fill="#607080" opacity=".8"/>
      
    </g></g><g transform="translate(128 256) scale(1.3333333333333333)">
    <ellipse cx="48" cy="81" rx="24" ry="6" fill="#000" opacity=".31"/>
    <g filter="url(#softShadow)" transform="translate(1 -1)">
      <path d="M34 21 C39 11 57 11 62 21 L59 37 L37 37Z" fill="#cfc5a6"/>
      <path d="M38 20 L33 14 M58 20 L63 14" stroke="#8f8265" stroke-width="2.2" stroke-linecap="round"/>
      <path d="M39 37 H57 L55 44 H41Z" fill="#cfc5a6"/>
      <path d="M35 43 H61 L66 63 H30Z" fill="#2a323d"/>
      <path d="M37 45 H59 L57 51 H39Z" fill="#607080" opacity=".72"/>
      <path d="M38 52 H58 M39 59 H57" stroke="#cfc5a6" stroke-width="2.4" stroke-linecap="round" opacity=".86"/>
      <circle cx="43" cy="27" r="3.6" fill="#101820"/>
      <circle cx="53" cy="27" r="3.6" fill="#101820"/>
      <circle cx="43" cy="27" r="1.9" fill="#67e0d4"/>
      <circle cx="53" cy="27" r="1.9" fill="#67e0d4"/>
      <path d="M42 34 H55 M44 38 H52" stroke="#8f8265" stroke-width="1.8" stroke-linecap="round"/>
      <path d="M35 45 C28 52 28 60 33 66" fill="none" stroke="#cfc5a6" stroke-width="5" stroke-linecap="round"/>
      <path d="M61 45 C67 25 64 34 69 40" fill="none" stroke="#cfc5a6" stroke-width="5" stroke-linecap="round"/>
      <path d="M72 26 L88 5" stroke="url(#bladeSteel)" stroke-width="4.4" stroke-linecap="round" filter="url(#steelGlow)"/>
      <path d="M75 23 L85 9" stroke="#fff" stroke-width="1.1" opacity=".75"/>
      <path d="M38 64 L34 80" stroke="#cfc5a6" stroke-width="6" stroke-linecap="round" transform="translate(0 0)"/>
      <path d="M57 64 L63 80" stroke="#cfc5a6" stroke-width="6" stroke-linecap="round" transform="translate(0 0)"/>
      <path d="M31 48 L25 54 L33 56 M65 48 L72 54 L63 56" fill="#607080" opacity=".8"/>
      
    </g></g><g transform="translate(256 256) scale(1.3333333333333333)">
    <ellipse cx="48" cy="81" rx="24" ry="6" fill="#000" opacity=".31"/>
    <g filter="url(#softShadow)" transform="translate(0 -2)">
      <path d="M34 21 C39 11 57 11 62 21 L59 37 L37 37Z" fill="#cfc5a6"/>
      <path d="M38 20 L33 14 M58 20 L63 14" stroke="#8f8265" stroke-width="2.2" stroke-linecap="round"/>
      <path d="M39 37 H57 L55 44 H41Z" fill="#cfc5a6"/>
      <path d="M35 43 H61 L66 63 H30Z" fill="#2a323d"/>
      <path d="M37 45 H59 L57 51 H39Z" fill="#607080" opacity=".72"/>
      <path d="M38 52 H58 M39 59 H57" stroke="#cfc5a6" stroke-width="2.4" stroke-linecap="round" opacity=".86"/>
      <circle cx="43" cy="27" r="3.6" fill="#101820"/>
      <circle cx="53" cy="27" r="3.6" fill="#101820"/>
      <circle cx="43" cy="27" r="1.9" fill="#67e0d4"/>
      <circle cx="53" cy="27" r="1.9" fill="#67e0d4"/>
      <path d="M42 34 H55 M44 38 H52" stroke="#8f8265" stroke-width="1.8" stroke-linecap="round"/>
      <path d="M35 45 C28 52 28 60 33 66" fill="none" stroke="#cfc5a6" stroke-width="5" stroke-linecap="round"/>
      <path d="M61 45 C67 41 68 50 73 56" fill="none" stroke="#cfc5a6" stroke-width="5" stroke-linecap="round"/>
      <path d="M76 42 L92 21" stroke="url(#bladeSteel)" stroke-width="4.4" stroke-linecap="round" filter="url(#steelGlow)"/>
      <path d="M79 39 L89 25" stroke="#fff" stroke-width="1.1" opacity=".75"/>
      <path d="M38 64 L34 80" stroke="#cfc5a6" stroke-width="6" stroke-linecap="round" transform="translate(0 0)"/>
      <path d="M57 64 L63 80" stroke="#cfc5a6" stroke-width="6" stroke-linecap="round" transform="translate(0 0)"/>
      <path d="M31 48 L25 54 L33 56 M65 48 L72 54 L63 56" fill="#607080" opacity=".8"/>
      <path d="M71 28 C82 34 84 43 76 52" fill="none" stroke="#67e0d4" stroke-width="3" stroke-linecap="round" opacity=".72"/>
    </g></g><g transform="translate(384 256) scale(1.3333333333333333)">
    <ellipse cx="48" cy="81" rx="24" ry="6" fill="#000" opacity=".31"/>
    <g filter="url(#softShadow)" transform="translate(-1 0)">
      <path d="M34 21 C39 11 57 11 62 21 L59 37 L37 37Z" fill="#cfc5a6"/>
      <path d="M38 20 L33 14 M58 20 L63 14" stroke="#8f8265" stroke-width="2.2" stroke-linecap="round"/>
      <path d="M39 37 H57 L55 44 H41Z" fill="#cfc5a6"/>
      <path d="M35 43 H61 L66 63 H30Z" fill="#2a323d"/>
      <path d="M37 45 H59 L57 51 H39Z" fill="#607080" opacity=".72"/>
      <path d="M38 52 H58 M39 59 H57" stroke="#cfc5a6" stroke-width="2.4" stroke-linecap="round" opacity=".86"/>
      <circle cx="43" cy="27" r="3.6" fill="#101820"/>
      <circle cx="53" cy="27" r="3.6" fill="#101820"/>
      <circle cx="43" cy="27" r="1.9" fill="#67e0d4"/>
      <circle cx="53" cy="27" r="1.9" fill="#67e0d4"/>
      <path d="M42 34 H55 M44 38 H52" stroke="#8f8265" stroke-width="1.8" stroke-linecap="round"/>
      <path d="M35 45 C28 52 28 60 33 66" fill="none" stroke="#cfc5a6" stroke-width="5" stroke-linecap="round"/>
      <path d="M61 45 C67 51 53 54 58 60" fill="none" stroke="#cfc5a6" stroke-width="5" stroke-linecap="round"/>
      <path d="M61 46 L77 25" stroke="url(#bladeSteel)" stroke-width="4.4" stroke-linecap="round" filter="url(#steelGlow)"/>
      <path d="M64 43 L74 29" stroke="#fff" stroke-width="1.1" opacity=".75"/>
      <path d="M38 64 L34 80" stroke="#cfc5a6" stroke-width="6" stroke-linecap="round" transform="translate(0 0)"/>
      <path d="M57 64 L63 80" stroke="#cfc5a6" stroke-width="6" stroke-linecap="round" transform="translate(0 0)"/>
      <path d="M31 48 L25 54 L33 56 M65 48 L72 54 L63 56" fill="#607080" opacity=".8"/>
      
    </g></g></svg>